<svg width="1200" height="630" viewBox="0 0 1200 630" fill="none" xmlns="http://www.w3.org/2000/svg">
  <defs>
    <linearGradient id="bg" x1="0" y1="0" x2="1" y2="1">
      <stop offset="0%" stop-color="#f5efe6" />
      <stop offset="100%" stop-color="#f8fafc" />
    </linearGradient>
    <linearGradient id="accent" x1="0" y1="0" x2="1" y2="1">
      <stop offset="0%" stop-color="#f26b5b" />
      <stop offset="100%" stop-color="#2a7bdc" />
    </linearGradient>
  </defs>
  <rect width="1200" height="630" rx="48" fill="url(#bg)" />
  <circle cx="180" cy="170" r="120" fill="rgba(242,107,91,0.18)" />
  <circle cx="980" cy="140" r="140" fill="rgba(42,123,220,0.18)" />
  <circle cx="980" cy="520" r="160" fill="rgba(47,93,80,0.18)" />
  <rect x="120" y="170" width="960" height="290" rx="40" fill="white" fill-opacity="0.78" />
  <rect x="160" y="210" width="160" height="160" rx="32" fill="url(#accent)" />
  <path d="M210 325v-80h40c20 0 32 12 32 28s-12 28-32 28h-20v24h-20zm20-44h20c8 0 12-4 12-8s-4-8-12-8h-20v16zm110 44v-80h20v80h-20z" fill="#0b0f14" />
  <text x="360" y="265" font-family="Space Grotesk, sans-serif" font-size="48" fill="#0b0f14">Rodrigo Pichara Gomes</text>
  <text x="360" y="320" font-family="IBM Plex Sans, sans-serif" font-size="28" fill="#52606d">Software Engineer · Backend · AI · Cybersecurity</text>
  <text x="360" y="370" font-family="IBM Plex Sans, sans-serif" font-size="22" fill="#52606d">pichara.github.io</text>
</svg>
